<svg id="SvgjsSvg1006" width="852" height="635.6953125" xmlns="http://www.w3.org/2000/svg" version="1.1" xmlns:xlink="http://www.w3.org/1999/xlink" xmlns:svgjs="http://svgjs.com/svgjs"><defs id="SvgjsDefs1007"><marker id="SvgjsMarker1070" markerWidth="14" markerHeight="10" refX="10" refY="5" viewBox="0 0 14 10" orient="auto" markerUnits="userSpaceOnUse" stroke-dasharray="0,0"><path id="SvgjsPath1071" d="M0,0 L14,5 L0,10 L0,0" fill="#323232" stroke="#323232" stroke-width="1"></path></marker><marker id="SvgjsMarker1078" markerWidth="14" markerHeight="10" refX="10" refY="5" viewBox="0 0 14 10" orient="auto" markerUnits="userSpaceOnUse" stroke-dasharray="0,0"><path id="SvgjsPath1079" d="M0,0 L14,5 L0,10 L0,0" fill="#323232" stroke="#323232" stroke-width="1"></path></marker><marker id="SvgjsMarker1086" markerWidth="14" markerHeight="10" refX="10" refY="5" viewBox="0 0 14 10" orient="auto" markerUnits="userSpaceOnUse" stroke-dasharray="0,0"><path id="SvgjsPath1087" d="M0,0 L14,5 L0,10 L0,0" fill="#323232" stroke="#323232" stroke-width="1"></path></marker><marker id="SvgjsMarker1096" markerWidth="14" markerHeight="10" refX="10" refY="5" viewBox="0 0 14 10" orient="auto" markerUnits="userSpaceOnUse" stroke-dasharray="0,0"><path id="SvgjsPath1097" d="M0,0 L14,5 L0,10 L0,0" fill="#323232" stroke="#323232" stroke-width="1"></path></marker><marker id="SvgjsMarker1106" markerWidth="14" markerHeight="10" refX="10" refY="5" viewBox="0 0 14 10" orient="auto" markerUnits="userSpaceOnUse" stroke-dasharray="0,0"><path id="SvgjsPath1107" d="M0,0 L14,5 L0,10 L0,0" fill="#323232" stroke="#323232" stroke-width="1"></path></marker><marker id="SvgjsMarker1116" markerWidth="14" markerHeight="10" refX="10" refY="5" viewBox="0 0 14 10" orient="auto" markerUnits="userSpaceOnUse" stroke-dasharray="0,0"><path id="SvgjsPath1117" d="M0,0 L14,5 L0,10 L0,0" fill="#323232" stroke="#323232" stroke-width="1"></path></marker><marker id="SvgjsMarker1131" markerWidth="14" markerHeight="10" refX="10" refY="5" viewBox="0 0 14 10" orient="auto" markerUnits="userSpaceOnUse" stroke-dasharray="0,0"><path id="SvgjsPath1132" d="M0,0 L14,5 L0,10 L0,0" fill="#323232" stroke="#323232" stroke-width="1"></path></marker><marker id="SvgjsMarker1147" markerWidth="14" markerHeight="10" refX="10" refY="5" viewBox="0 0 14 10" orient="auto" markerUnits="userSpaceOnUse" stroke-dasharray="0,0"><path id="SvgjsPath1148" d="M0,0 L14,5 L0,10 L0,0" fill="#323232" stroke="#323232" stroke-width="1"></path></marker><marker id="SvgjsMarker1155" markerWidth="14" markerHeight="10" refX="10" refY="5" viewBox="0 0 14 10" orient="auto" markerUnits="userSpaceOnUse" stroke-dasharray="0,0"><path id="SvgjsPath1156" d="M0,0 L14,5 L0,10 L0,0" fill="#323232" stroke="#323232" stroke-width="1"></path></marker><marker id="SvgjsMarker1163" markerWidth="14" markerHeight="10" refX="10" refY="5" viewBox="0 0 14 10" orient="auto" markerUnits="userSpaceOnUse" stroke-dasharray="0,0"><path id="SvgjsPath1164" d="M0,0 L14,5 L0,10 L0,0" fill="#323232" stroke="#323232" stroke-width="1"></path></marker><marker id="SvgjsMarker1171" markerWidth="14" markerHeight="10" refX="10" refY="5" viewBox="0 0 14 10" orient="auto" markerUnits="userSpaceOnUse" stroke-dasharray="0,0"><path id="SvgjsPath1172" d="M0,0 L14,5 L0,10 L0,0" fill="#323232" stroke="#323232" stroke-width="1"></path></marker><marker id="SvgjsMarker1175" markerWidth="14" markerHeight="10" refX="10" refY="5" viewBox="0 0 14 10" orient="auto" markerUnits="userSpaceOnUse" stroke-dasharray="0,0"><path id="SvgjsPath1176" d="M0,0 L14,5 L0,10 L0,0" fill="#323232" stroke="#323232" stroke-width="1"></path></marker></defs><g id="SvgjsG1008" transform="translate(43.390625,93.234375)"><path id="SvgjsPath1009" d="M 0 35C 0 -11.666666666666666 70 -11.666666666666666 70 35C 70 81.66666666666667 0 81.66666666666667 0 35Z" stroke="rgba(50,50,50,1)" stroke-width="2" fill-opacity="1" fill="#ffffff"></path><g id="SvgjsG1010"><text id="SvgjsText1011" font-family="微软雅黑" text-anchor="middle" font-size="13px" width="50px" fill="#323232" font-weight="400" align="middle" lineHeight="125%" anchor="middle" family="微软雅黑" size="13px" weight="400" font-style="" opacity="1" y="24.375" transform="rotate(0)"><tspan id="SvgjsTspan1012" dy="16" x="35"><tspan id="SvgjsTspan1013" style="text-decoration:;">test</tspan></tspan></text></g></g><g id="SvgjsG1014" transform="translate(43.390625,227.234375)"><path id="SvgjsPath1015" d="M 0 35C 0 -11.666666666666666 70 -11.666666666666666 70 35C 70 81.66666666666667 0 81.66666666666667 0 35Z" stroke="rgba(50,50,50,1)" stroke-width="2" fill-opacity="1" fill="#ffffff"></path><g id="SvgjsG1016"><text id="SvgjsText1017" font-family="微软雅黑" text-anchor="middle" font-size="13px" width="50px" fill="#323232" font-weight="400" align="middle" lineHeight="125%" anchor="middle" family="微软雅黑" size="13px" weight="400" font-style="" opacity="1" y="24.375" transform="rotate(0)"><tspan id="SvgjsTspan1018" dy="16" x="35"><tspan id="SvgjsTspan1019" style="text-decoration:;">uat</tspan></tspan></text></g></g><g id="SvgjsG1020" transform="translate(43.390625,360.234375)"><path id="SvgjsPath1021" d="M 0 35C 0 -11.666666666666666 70 -11.666666666666666 70 35C 70 81.66666666666667 0 81.66666666666667 0 35Z" stroke="rgba(50,50,50,1)" stroke-width="2" fill-opacity="1" fill="#ffffff"></path><g id="SvgjsG1022"><text id="SvgjsText1023" font-family="微软雅黑" text-anchor="middle" font-size="13px" width="50px" fill="#323232" font-weight="400" align="middle" lineHeight="125%" anchor="middle" family="微软雅黑" size="13px" weight="400" font-style="" opacity="1" y="24.375" transform="rotate(0)"><tspan id="SvgjsTspan1024" dy="16" x="35"><tspan id="SvgjsTspan1025" style="text-decoration:;">master</tspan></tspan></text></g></g><g id="SvgjsG1026" transform="translate(43.39062500000006,493.234375)"><path id="SvgjsPath1027" d="M 0 35C 0 -11.666666666666666 70 -11.666666666666666 70 35C 70 81.66666666666667 0 81.66666666666667 0 35Z" stroke="rgba(50,50,50,1)" stroke-width="2" fill-opacity="1" fill="#ffffff"></path><g id="SvgjsG1028"><text id="SvgjsText1029" font-family="微软雅黑" text-anchor="middle" font-size="13px" width="50px" fill="#323232" font-weight="400" align="middle" lineHeight="125%" anchor="middle" family="微软雅黑" size="13px" weight="400" font-style="" opacity="1" y="24.375" transform="rotate(0)"><tspan id="SvgjsTspan1030" dy="16" x="35"><tspan id="SvgjsTspan1031" style="text-decoration:;">release</tspan></tspan></text></g></g><g id="SvgjsG1032" transform="translate(605.390625,233.234375)"><path id="SvgjsPath1033" d="M 0 0L 191 0L 191 58L 0 58Z" stroke="rgba(50,50,50,1)" stroke-width="2" fill-opacity="1" fill="#ffffff"></path><g id="SvgjsG1034"><text id="SvgjsText1035" font-family="微软雅黑" text-anchor="middle" font-size="13px" width="171px" fill="#323232" font-weight="400" align="middle" lineHeight="125%" anchor="middle" family="微软雅黑" size="13px" weight="400" font-style="" opacity="1" y="18.375" transform="rotate(0)"><tspan id="SvgjsTspan1036" dy="16" x="95.5"><tspan id="SvgjsTspan1037" style="text-decoration:;">merge/SPCB-XXXX/uat</tspan></tspan></text></g></g><g id="SvgjsG1038" transform="translate(605.390625,366.234375)"><path id="SvgjsPath1039" d="M 0 0L 191 0L 191 58L 0 58Z" stroke="rgba(50,50,50,1)" stroke-width="2" fill-opacity="1" fill="#ffffff"></path><g id="SvgjsG1040"><text id="SvgjsText1041" font-family="微软雅黑" text-anchor="middle" font-size="13px" width="171px" fill="#323232" font-weight="400" align="middle" lineHeight="125%" anchor="middle" family="微软雅黑" size="13px" weight="400" font-style="" opacity="1" y="18.375" transform="rotate(0)"><tspan id="SvgjsTspan1042" dy="16" x="95.5"><tspan id="SvgjsTspan1043" style="text-decoration:;">merge/SPCB-XXXX/master</tspan></tspan></text></g></g><g id="SvgjsG1044" transform="translate(605.390625,499.234375)"><path id="SvgjsPath1045" d="M 0 0L 191 0L 191 58L 0 58Z" stroke="rgba(50,50,50,1)" stroke-width="2" fill-opacity="1" fill="#ffffff"></path><g id="SvgjsG1046"><text id="SvgjsText1047" font-family="微软雅黑" text-anchor="middle" font-size="13px" width="171px" fill="#323232" font-weight="400" align="middle" lineHeight="125%" anchor="middle" family="微软雅黑" size="13px" weight="400" font-style="" opacity="1" y="18.375" transform="rotate(0)"><tspan id="SvgjsTspan1048" dy="16" x="95.5"><tspan id="SvgjsTspan1049" style="text-decoration:;">merge/SPCB-XXXX/release</tspan></tspan></text></g></g><g id="SvgjsG1050" transform="translate(605.390625,99.234375)"><path id="SvgjsPath1051" d="M 0 0L 191 0L 191 58L 0 58Z" stroke="rgba(50,50,50,1)" stroke-width="2" fill-opacity="1" fill="#ffffff"></path><g id="SvgjsG1052"><text id="SvgjsText1053" font-family="微软雅黑" text-anchor="middle" font-size="13px" width="171px" fill="#323232" font-weight="400" align="middle" lineHeight="125%" anchor="middle" family="微软雅黑" size="13px" weight="400" font-style="" opacity="1" y="18.375" transform="rotate(0)"><tspan id="SvgjsTspan1054" dy="16" x="95.5"><tspan id="SvgjsTspan1055" style="text-decoration:;">merge/SPCB-XXXX/test</tspan></tspan></text></g></g><g id="SvgjsG1056" transform="translate(286.390625,370.234375)"><path id="SvgjsPath1057" d="M 16.666666666666668 0L 129.33333333333334 0C 151.55555555555554 0 151.55555555555554 50 129.33333333333334 50L 16.666666666666668 50C -5.555555555555556 50 -5.555555555555556 0 16.666666666666668 0Z" stroke="rgba(50,50,50,1)" stroke-width="2" fill-opacity="1" fill="#ffffff"></path><g id="SvgjsG1058"><text id="SvgjsText1059" font-family="微软雅黑" text-anchor="middle" font-size="13px" width="126px" fill="#323232" font-weight="400" align="middle" lineHeight="125%" anchor="middle" family="微软雅黑" size="13px" weight="400" font-style="" opacity="1" y="14.375" transform="rotate(0)"><tspan id="SvgjsTspan1060" dy="16" x="73"><tspan id="SvgjsTspan1061" style="text-decoration:;">feature/SPCB-XXXX</tspan></tspan></text></g></g><g id="SvgjsG1062" transform="translate(288.390625,503.234375)"><path id="SvgjsPath1063" d="M 16.666666666666668 0L 129.33333333333334 0C 151.55555555555554 0 151.55555555555554 50 129.33333333333334 50L 16.666666666666668 50C -5.555555555555556 50 -5.555555555555556 0 16.666666666666668 0Z" stroke="rgba(50,50,50,1)" stroke-width="2" fill-opacity="1" fill="#ffffff"></path><g id="SvgjsG1064"><text id="SvgjsText1065" font-family="微软雅黑" text-anchor="middle" font-size="13px" width="126px" fill="#323232" font-weight="400" align="middle" lineHeight="125%" anchor="middle" family="微软雅黑" size="13px" weight="400" font-style="" opacity="1" y="14.375" transform="rotate(0)"><tspan id="SvgjsTspan1066" dy="16" x="73"><tspan id="SvgjsTspan1067" style="text-decoration:;">hotfix/SPCB-XXXX</tspan></tspan></text></g></g><g id="SvgjsG1068"><path id="SvgjsPath1069" d="M114.390625 395.234375L199.890625 395.234375L199.890625 395.234375L282.790625 395.234375" stroke="#323232" stroke-width="2" fill="none" marker-end="url(#SvgjsMarker1070)"></path><rect id="SvgjsRect1072" width="107" height="16" x="145.090625" y="387.234375" fill="#ffffff"></rect><text id="SvgjsText1073" font-family="微软雅黑" text-anchor="middle" font-size="13px" width="107px" fill="#323232" font-weight="400" align="top" lineHeight="16px" anchor="middle" family="微软雅黑" size="13px" weight="400" font-style="" opacity="1" y="384.609375" transform="rotate(0)"><tspan id="SvgjsTspan1074" dy="16" x="198.590625"><tspan id="SvgjsTspan1075" style="text-decoration:;">gcbf SPCB-XXXX</tspan></tspan></text></g><g id="SvgjsG1076"><path id="SvgjsPath1077" d="M114.39062500000006 528.234375L200.890625 528.234375L200.890625 528.234375L284.790625 528.234375" stroke="#323232" stroke-width="2" fill="none" marker-end="url(#SvgjsMarker1078)"></path><rect id="SvgjsRect1080" width="110" height="16" x="144.59062500000002" y="520.234375" fill="#ffffff"></rect><text id="SvgjsText1081" font-family="微软雅黑" text-anchor="middle" font-size="13px" width="110px" fill="#323232" font-weight="400" align="top" lineHeight="16px" anchor="middle" family="微软雅黑" size="13px" weight="400" font-style="" opacity="1" y="517.609375" transform="rotate(0)"><tspan id="SvgjsTspan1082" dy="16" x="199.59062500000002"><tspan id="SvgjsTspan1083" style="text-decoration:;">gcbh SPCB-XXXX</tspan></tspan></text></g><g id="SvgjsG1084"><path id="SvgjsPath1085" d="M525.190625 261.834375L525.190625 128.234375L601.790625 128.234375" stroke="#323232" stroke-width="2" fill="none" marker-end="url(#SvgjsMarker1086)"></path><rect id="SvgjsRect1088" width="45" height="32" x="537.890625" y="112.234375" fill="#ffffff"></rect><text id="SvgjsText1089" font-family="微软雅黑" text-anchor="middle" font-size="13px" width="45px" fill="#323232" font-weight="400" align="top" lineHeight="16px" anchor="middle" family="微软雅黑" size="13px" weight="400" font-style="" opacity="1" y="109.609375" transform="rotate(0)"><tspan id="SvgjsTspan1090" dy="16" x="560.390625"><tspan id="SvgjsTspan1091" style="text-decoration:;">gcbmt/</tspan></tspan><tspan id="SvgjsTspan1092" dy="16" x="560.390625"><tspan id="SvgjsTspan1093" style="text-decoration:;">gcomt</tspan></tspan></text></g><g id="SvgjsG1094"><path id="SvgjsPath1095" d="M525.190625 395.434375L525.190625 262.234375L601.790625 262.234375" stroke="#323232" stroke-width="2" fill="none" marker-end="url(#SvgjsMarker1096)"></path><rect id="SvgjsRect1098" width="47" height="32" x="537.7806249999999" y="246.234375" fill="#ffffff"></rect><text id="SvgjsText1099" font-family="微软雅黑" text-anchor="middle" font-size="13px" width="47px" fill="#323232" font-weight="400" align="top" lineHeight="16px" anchor="middle" family="微软雅黑" size="13px" weight="400" font-style="" opacity="1" y="243.609375" transform="rotate(0)"><tspan id="SvgjsTspan1100" dy="16" x="561.2806249999999"><tspan id="SvgjsTspan1101" style="text-decoration:;">gcbmu/</tspan></tspan><tspan id="SvgjsTspan1102" dy="16" x="561.2806249999999"><tspan id="SvgjsTspan1103" style="text-decoration:;">gcomu</tspan></tspan></text></g><g id="SvgjsG1104"><path id="SvgjsPath1105" d="M525.990625 460.234375L525.1778044871797 460.234375L525.1778044871797 395.234375L601.790625 395.234375" stroke="#323232" stroke-width="2" fill="none" marker-end="url(#SvgjsMarker1106)"></path><rect id="SvgjsRect1108" width="51" height="32" x="535.7735737179489" y="379.234375" fill="#ffffff"></rect><text id="SvgjsText1109" font-family="微软雅黑" text-anchor="middle" font-size="13px" width="51px" fill="#323232" font-weight="400" align="top" lineHeight="16px" anchor="middle" family="微软雅黑" size="13px" weight="400" font-style="" opacity="1" y="376.609375" transform="rotate(0)"><tspan id="SvgjsTspan1110" dy="16" x="561.2735737179489"><tspan id="SvgjsTspan1111" style="text-decoration:;">gcbmm/</tspan></tspan><tspan id="SvgjsTspan1112" dy="16" x="561.2735737179489"><tspan id="SvgjsTspan1113" style="text-decoration:;">gcomm</tspan></tspan></text></g><g id="SvgjsG1114"><path id="SvgjsPath1115" d="M524.9189268867925 460.83814858490564L525.1547759433959 460.83814858490564L525.1547759433959 528.234375L601.790625 528.234375" stroke="#323232" stroke-width="2" fill="none" marker-end="url(#SvgjsMarker1116)"></path><rect id="SvgjsRect1118" width="45" height="32" x="537.890625" y="512.234375" fill="#ffffff"></rect><text id="SvgjsText1119" font-family="微软雅黑" text-anchor="middle" font-size="13px" width="45px" fill="#323232" font-weight="400" align="top" lineHeight="16px" anchor="middle" family="微软雅黑" size="13px" weight="400" font-style="" opacity="1" y="509.609375" transform="rotate(0)"><tspan id="SvgjsTspan1120" dy="16" x="560.390625"><tspan id="SvgjsTspan1121" style="text-decoration:;">gcbmr/</tspan></tspan><tspan id="SvgjsTspan1122" dy="16" x="560.390625"><tspan id="SvgjsTspan1123" style="text-decoration:;">gcomr</tspan></tspan></text></g><g id="SvgjsG1124" transform="matrix(-1,1.2246467991473532e-16,-1.2246467991473532e-16,-1,444.3906249999998,527.234375)"><path id="SvgjsPath1125" d="M 11.333333333333295 0L 0 0L 0 135L 11.333333333333295 135" stroke="rgba(50,50,50,1)" stroke-width="2" fill="none"></path><path id="SvgjsPath1126" d="M 0 0L 67.99999999999977 0L 67.99999999999977 135L 0 135Z" stroke="none" fill="none"></path><g id="SvgjsG1127"><text id="SvgjsText1128" font-family="微软雅黑" text-anchor="middle" font-size="13px" width="48px" fill="#323232" font-weight="400" align="middle" lineHeight="125%" anchor="middle" family="微软雅黑" size="13px" weight="400" font-style="" opacity="1" y="56.875" transform="rotate(0)"></text></g></g><g id="SvgjsG1129"><path id="SvgjsPath1130" d="M797.390625 262.234375L826.390625 262.234375L826.390625 63.46514423076911L387.3137019230769 63.46514423076911L387.3137019230769 366.7882211538461" stroke="#323232" stroke-width="2" fill="none" marker-end="url(#SvgjsMarker1131)"></path><rect id="SvgjsRect1133" width="27" height="16" x="555.5752403846154" y="55.46514423076911" fill="#ffffff"></rect><text id="SvgjsText1134" font-family="微软雅黑" text-anchor="middle" font-size="13px" width="27px" fill="#323232" font-weight="400" align="top" lineHeight="16px" anchor="middle" family="微软雅黑" size="13px" weight="400" font-style="" opacity="1" y="52.84014423076911" transform="rotate(0)"><tspan id="SvgjsTspan1135" dy="16" x="569.0752403846154"><tspan id="SvgjsTspan1136" style="text-decoration:;">gcof</tspan></tspan></text></g><g id="SvgjsG1137"><path id="SvgjsPath1138" d="M797.390625 128.234375L810.890625 128.234375L810.890625 128.234375L825.390625 128.234375" stroke="#323232" stroke-width="2" fill="none"></path></g><g id="SvgjsG1139"><path id="SvgjsPath1140" d="M797.390625 395.234375L826.390625 395.234375L826.390625 263.234375" stroke="#323232" stroke-width="2" fill="none"></path></g><g id="SvgjsG1141"><path id="SvgjsPath1142" d="M797.390625 528.234375L826.390625 528.234375L826.390625 395.234375" stroke="#323232" stroke-width="2" fill="none"></path></g><g id="SvgjsG1143"><path id="SvgjsPath1144" d="M445.390625 459.734375L484.80441810344837 459.734375L484.80441810344837 459.734375L525.2182112068966 459.734375" stroke="#323232" stroke-width="2" fill="none"></path></g><g id="SvgjsG1145"><path id="SvgjsPath1146" d="M797.390625 395.234375L826.390625 395.234375L826.390625 583.234375L361.390625 583.234375L361.390625 556.834375" stroke="#323232" stroke-width="2" fill="none" marker-end="url(#SvgjsMarker1147)"></path><rect id="SvgjsRect1149" width="30" height="16" x="532.390625" y="575.234375" fill="#ffffff"></rect><text id="SvgjsText1150" font-family="微软雅黑" text-anchor="middle" font-size="13px" width="30px" fill="#323232" font-weight="400" align="top" lineHeight="16px" anchor="middle" family="微软雅黑" size="13px" weight="400" font-style="" opacity="1" y="572.609375" transform="rotate(0)"><tspan id="SvgjsTspan1151" dy="16" x="547.390625"><tspan id="SvgjsTspan1152" style="text-decoration:;">gcoh</tspan></tspan></text></g><g id="SvgjsG1153"><path id="SvgjsPath1154" d="M314.3036684782609 369.3213315217392L314.3036684782609 128.234375L116.99062500000002 128.234375" stroke="#323232" stroke-width="2" fill="none" marker-end="url(#SvgjsMarker1155)"></path><rect id="SvgjsRect1157" width="27" height="16" x="199.890625" y="120.234375" fill="#ffffff"></rect><text id="SvgjsText1158" font-family="微软雅黑" text-anchor="middle" font-size="13px" width="27px" fill="#323232" font-weight="400" align="top" lineHeight="16px" anchor="middle" family="微软雅黑" size="13px" weight="400" font-style="" opacity="1" y="117.609375" transform="rotate(0)"><tspan id="SvgjsTspan1159" dy="16" x="213.390625"><tspan id="SvgjsTspan1160" style="text-decoration:;">gcot</tspan></tspan></text></g><g id="SvgjsG1161"><path id="SvgjsPath1162" d="M313.4341032608696 261.6256793478261L213.4123641304348 261.6256793478261L213.4123641304348 261.6256793478261L116.99062500000002 261.6256793478261" stroke="#323232" stroke-width="2" fill="none" marker-end="url(#SvgjsMarker1163)"></path><rect id="SvgjsRect1165" width="30" height="16" x="200.21236413043482" y="253.62567934782612" fill="#ffffff"></rect><text id="SvgjsText1166" font-family="微软雅黑" text-anchor="middle" font-size="13px" width="30px" fill="#323232" font-weight="400" align="top" lineHeight="16px" anchor="middle" family="微软雅黑" size="13px" weight="400" font-style="" opacity="1" y="251.00067934782612" transform="rotate(0)"><tspan id="SvgjsTspan1167" dy="16" x="215.21236413043482"><tspan id="SvgjsTspan1168" style="text-decoration:;">gcou</tspan></tspan></text></g><g id="SvgjsG1169"><path id="SvgjsPath1170" d="M314.83506944444446 420.78993055555554L314.83506944444446 461.90104166666663L78.390625 461.90104166666663L78.390625 433.834375" stroke="#323232" stroke-width="2" fill="none" marker-end="url(#SvgjsMarker1171)"></path></g><g id="SvgjsG1173"><path id="SvgjsPath1174" d="M315.390625 502.0121527777777L314.8350694444439 502.0121527777777L314.8350694444439 462.1817434210526L78.39062500000006 462.1817434210526L78.39062500000006 489.634375" stroke="#323232" stroke-width="2" fill="none" marker-end="url(#SvgjsMarker1175)"></path></g><g id="SvgjsG1177" transform="translate(39.29172390109886,429.46514423076917)"><path id="SvgjsPath1178" d="M 0 0L 120 0L 120 40L 0 40Z" stroke="none" fill="none"></path><g id="SvgjsG1179"><text id="SvgjsText1180" font-family="微软雅黑" text-anchor="middle" font-size="12px" width="120px" fill="#323232" font-weight="400" align="middle" lineHeight="125%" anchor="middle" family="微软雅黑" size="12px" weight="400" font-style="" opacity="1" y="10" transform="rotate(0)"><tspan id="SvgjsTspan1181" dy="15" x="60"><tspan id="SvgjsTspan1182" style="text-decoration:;">gcom</tspan></tspan></text></g></g><g id="SvgjsG1183" transform="translate(36.98403159340637,450.9266826923075)"><path id="SvgjsPath1184" d="M 0 0L 120 0L 120 40L 0 40Z" stroke="none" fill="none"></path><g id="SvgjsG1185"><text id="SvgjsText1186" font-family="微软雅黑" text-anchor="middle" font-size="12px" width="120px" fill="#323232" font-weight="400" align="middle" lineHeight="125%" anchor="middle" family="微软雅黑" size="12px" weight="400" font-style="" opacity="1" y="10" transform="rotate(0)"><tspan id="SvgjsTspan1187" dy="15" x="60"><tspan id="SvgjsTspan1188" style="text-decoration:;">gcor</tspan></tspan></text></g></g><g id="SvgjsG1189"><path id="SvgjsPath1190" d="M314.2367788461538 127.31129807692307L314.2367788461538 76.1574519230769L314.2367788461538 76.1574519230769L314.2367788461538 25.00360576923076" stroke="#323232" stroke-width="2" fill="none"></path></g><g id="SvgjsG1191"><path id="SvgjsPath1192" d="M313.4675480769231 25.772836538461533L570.0060096153846 25.772836538461533L570.0060096153846 25.772836538461533L826.5444711538462 25.772836538461533" stroke="#323232" stroke-width="2" fill="none"></path></g><g id="SvgjsG1193"><path id="SvgjsPath1194" d="M826.5444711538462 63.465144230769226L826.5444711538462 44.234375L826.5444711538462 44.234375L826.5444711538462 25.00360576923076" stroke="#323232" stroke-width="2" fill="none"></path></g><g id="SvgjsG1195"><path id="SvgjsPath1196" d="M827.3137019230769 611.1574519230772L25.006009615384528 611.1574519230772L25.006009615384528 462.69591346153845L25.77524038461536 462.69591346153845" stroke="#323232" stroke-width="2" fill="none"></path></g><g id="SvgjsG1197"><path id="SvgjsPath1198" d="M826.2997159090908 583.325284090909L826.2997159090908 596.9616477272726L826.2997159090908 596.9616477272726L826.2997159090908 610.5980113636363" stroke="#323232" stroke-width="2" fill="none"></path></g><g id="SvgjsG1199"><path id="SvgjsPath1200" d="M25.006009615384585 461.9266826923076L51.54447115384613 461.9266826923076L51.54447115384613 461.9266826923076L78.08293269230768 461.9266826923076" stroke="#323232" stroke-width="2" fill="none"></path></g></svg>